<svg id="Camada_1" data-name="Camada 1" xmlns="http://www.w3.org/2000/svg" viewBox="0 0 41.02 41.02"><defs><style>.cls-1{fill:#fff;}.cls-2{fill:#1e1e1e;}</style></defs><circle class="cls-1" cx="20.51" cy="20.51" r="20.51"/><path class="cls-2" d="M14.52,24c0,4.16-2.66,6.57-6,6.57S2.65,28.08,2.65,24V21.35a.54.54,0,0,1,.54-.54H4.1a.54.54,0,0,1,.54.54V24c0,3,1.58,4.57,3.86,4.57S12.4,26.9,12.4,24V14.65a1.12,1.12,0,0,0-1.12-1.12H9.17A.54.54,0,0,1,8.64,13v-.91a.54.54,0,0,1,.53-.54h2.36a3,3,0,0,1,3,3Z"/><path class="cls-2" d="M16.64,17.85c0-4.16,2.66-6.58,6-6.58s5.86,2.53,5.86,6.61v2h-2V17.9c0-3-1.59-4.56-3.87-4.56S18.76,15,18.76,17.9v9.33a1.12,1.12,0,0,0,1.12,1.12H22a.54.54,0,0,1,.54.53v.92a.54.54,0,0,1-.54.54H19.62a3,3,0,0,1-3-3Z"/><path class="cls-2" d="M26.52,17.85c0-4.16,2.66-6.58,6-6.58s5.86,2.53,5.86,6.61v2.4a.54.54,0,0,1-.54.53h-.91a.54.54,0,0,1-.54-.53V17.9c0-3-1.58-4.56-3.87-4.56S28.64,15,28.64,17.9v9.33a1.12,1.12,0,0,0,1.12,1.12h2.1a.54.54,0,0,1,.54.53v.92a.54.54,0,0,1-.54.54H29.5a3,3,0,0,1-3-3Z"/><circle class="cls-2" cx="21.45" cy="20.81" r="1.07"/><circle class="cls-2" cx="31.33" cy="20.81" r="1.07"/><circle class="cls-2" cx="9.71" cy="20.81" r="1.07"/></svg>