<svg id="Camada_1" data-name="Camada 1" xmlns="http://www.w3.org/2000/svg" viewBox="0 0 40 32"><defs><style>.cls-1{fill:#1e1e1e;}</style></defs><path class="cls-1" d="M13.45,19.37c0,4.54-2.9,7.18-6.56,7.18S.5,23.79.5,19.34V16.45a.59.59,0,0,1,.59-.59h1a.59.59,0,0,1,.59.59v2.86c0,3.28,1.73,5,4.22,5s4.25-1.79,4.25-5V9.13A1.23,1.23,0,0,0,9.91,7.91H7.62A.59.59,0,0,1,7,7.33v-1a.59.59,0,0,1,.59-.58H10.2A3.25,3.25,0,0,1,13.45,9Z"/><path class="cls-1" d="M15.76,12.63c0-4.54,2.91-7.18,6.57-7.18s6.39,2.76,6.39,7.21V14.8H26.55V12.69c0-3.28-1.73-5-4.22-5s-4.25,1.79-4.25,5V22.87a1.22,1.22,0,0,0,1.22,1.22h2.3a.58.58,0,0,1,.58.58v1a.58.58,0,0,1-.58.58H19A3.25,3.25,0,0,1,15.76,23Z"/><path class="cls-1" d="M26.55,12.63c0-4.54,2.9-7.18,6.56-7.18s6.39,2.76,6.39,7.21v2.62a.58.58,0,0,1-.59.58h-1a.58.58,0,0,1-.59-.58V12.69c0-3.28-1.73-5-4.22-5s-4.25,1.79-4.25,5V22.87a1.23,1.23,0,0,0,1.23,1.22h2.29a.59.59,0,0,1,.59.58v1a.59.59,0,0,1-.59.58H29.8A3.25,3.25,0,0,1,26.55,23Z"/><circle class="cls-1" cx="21.01" cy="15.86" r="1.17"/><circle class="cls-1" cx="31.8" cy="15.86" r="1.17"/><circle class="cls-1" cx="8.2" cy="15.86" r="1.17"/></svg>